<svg xmlns="http://www.w3.org/2000/svg" viewBox="0 0 1093.15 1055.83"><defs><style>.cls-1{fill:#585755;}.cls-2{fill:#6077a8;fill-rule:evenodd;}</style></defs><g id="Слой_2" data-name="Слой 2"><g id="Layer_1" data-name="Layer 1"><path class="cls-1" d="M506.41,447a36.84,36.84,0,0,0-37,36.58v156.9a37,37,0,0,0,73.91,0V483.55c0-20.14-16.62-36.58-37-36.58m509,0c-20.36,0-37,16.44-37,36.58v156.9a37,37,0,0,0,73.92,0V483.55A36.85,36.85,0,0,0,1015.42,447Zm17.45,271.26H489a19.32,19.32,0,1,0,0,38.63h543.91a19.32,19.32,0,1,0,0-38.63ZM574.24,677.85H947.57a75.55,75.55,0,0,1-9.9-37.4V594.06a55.27,55.27,0,0,1-13.95,1.79H598.1a54.43,54.43,0,0,1-14-1.79v46.39A75.56,75.56,0,0,1,574.24,677.85ZM993.91,797.24l6.18,24.86h18V797.24Zm-490.18,0V822.1h18l6.17-24.86ZM842.52,264l-170-97.19L461.87,46.43,40.78,287.12v481.6l421.09,240.69L833,797.24H569.8l-16.2,65.24H462.93v-71.1a60.09,60.09,0,0,1-34.27-53.83,59.39,59.39,0,0,1,20.72-45,76.25,76.25,0,0,1-20.72-52.13V483.55c0-42.31,35-76.95,77.75-76.95a77.72,77.72,0,0,1,37,9.29V318.2c0-29.74,24.68-54.19,54.73-54.19ZM472,5.78,923.72,264c30,0,54.73,24.45,54.73,54.19v97.69a77.76,77.76,0,0,1,37-9.29c42.74,0,77.73,34.64,77.73,76.95v156.9a76.24,76.24,0,0,1-20.76,52.17,58.94,58.94,0,0,1,20.76,44.93,59.94,59.94,0,0,1-34.27,53.78v71.15H968.21L952,797.24H914.24Q688.07,926.57,461.87,1055.83q-231-132-461.87-264V264Q230.93,132,461.87,0ZM186.07,637.52Q161.76,679.24,137.46,721h97.23Q210.35,679.22,186.07,637.52ZM206.46,300.9V592.07q49.38,84.64,98.75,169.28H66.93q49.36-84.69,98.75-169.28V277.79l196-112,166.94,85.1L272.46,397.27l1.93-135.19Zm108.89-62.24-1.26,88.41,129.68-74.13-81.09-41.33Zm608.37,65.73H598.1a13.85,13.85,0,0,0-14,13.81V541.67a13.85,13.85,0,0,0,14,13.81H923.72a13.85,13.85,0,0,0,13.95-13.81V318.2A13.85,13.85,0,0,0,923.72,304.39Z"/><path class="cls-2" d="M528.59,250.88,272.46,397.27l1.93-135.19L206.46,300.9V592.07l98.75,169.28H66.93l98.75-169.28V277.79l196-112ZM842.52,264l-170-97.19L461.87,46.43,40.78,287.12v481.6l421.09,240.69L833,797.24H569.8l-16.2,65.24H462.93v-71.1a60.09,60.09,0,0,1-34.27-53.83,59.39,59.39,0,0,1,20.72-45,76.25,76.25,0,0,1-20.72-52.13V483.55c0-42.31,35-76.95,77.75-76.95a77.65,77.65,0,0,1,36.95,9.29V318.2c0-29.74,24.69-54.19,54.74-54.19Z"/></g></g></svg>